<svg xmlns="http://www.w3.org/2000/svg" viewBox="0 0 1030 650">
  <!-- Background -->
  <rect width="1030" height="650" fill="#f8f9fa" rx="10" ry="10" />
  
  <!-- Title -->
  <text x="515" y="35" font-family="Arial" font-size="24" text-anchor="middle" font-weight="bold">Survey Chatbot System Architecture</text>
  
  <!-- Main FastAPI Application Container -->
  <rect x="230" y="70" width="780" height="280" fill="#e1f5fe" stroke="#0288d1" stroke-width="2" rx="10" ry="10" />
  <text x="620" y="90" font-family="Arial" font-size="18" font-weight="bold" text-anchor="middle">FastAPI Application</text>
  
  <!-- REST API Section -->
  <rect x="250" y="110" width="360" height="220" fill="#bbdefb" stroke="#1976d2" stroke-width="1" rx="8" ry="8" />
  <text x="430" y="130" font-family="Arial" font-size="16" font-weight="bold" text-anchor="middle">REST API Endpoints</text>
  
  <rect x="270" y="145" width="320" height="170" fill="#ffffff" stroke="#1976d2" stroke-width="1" rx="5" ry="5" />
  <text x="285" y="165" font-family="Arial" font-size="12">• GET /health</text>
  <text x="285" y="185" font-family="Arial" font-size="12">• GET /surveys</text>
  <text x="285" y="205" font-family="Arial" font-size="12">• GET /surveys/{survey_id}</text>
  <text x="285" y="225" font-family="Arial" font-size="12">• POST /conversations</text>
  <text x="285" y="245" font-family="Arial" font-size="12">• GET /conversations/{id}</text>
  <text x="285" y="265" font-family="Arial" font-size="12">• GET /conversations/{id}/messages</text>
  <text x="285" y="285" font-family="Arial" font-size="12">• POST /conversations/{id}/messages</text>
  <text x="285" y="305" font-family="Arial" font-size="12">• POST /conversations/{id}/resume</text>
  
  <!-- WebSocket Section -->
  <rect x="630" y="110" width="360" height="220" fill="#c8e6c9" stroke="#388e3c" stroke-width="1" rx="8" ry="8" />
  <text x="810" y="130" font-family="Arial" font-size="16" font-weight="bold" text-anchor="middle">WebSocket Interface</text>
  
  <rect x="650" y="145" width="320" height="170" fill="#ffffff" stroke="#388e3c" stroke-width="1" rx="5" ry="5" />
  <text x="665" y="165" font-family="Arial" font-size="12">• WebSocket Connection Manager</text>
  <text x="665" y="185" font-family="Arial" font-size="12">• Real-time Message Exchange</text>
  <text x="665" y="205" font-family="Arial" font-size="12">• Connection Handling</text>
  <text x="665" y="225" font-family="Arial" font-size="12">• Reconnection Logic</text>
  <text x="665" y="245" font-family="Arial" font-size="12">• Message Broadcasting</text>
  <text x="665" y="265" font-family="Arial" font-size="12">• State Synchronization</text>
  <text x="665" y="285" font-family="Arial" font-size="12">• Survey Completion Detection</text>
  <text x="665" y="305" font-family="Arial" font-size="12">• Error Handling</text>
  
  <!-- Mock Database Layer -->
  <rect x="230" y="380" width="780" height="120" fill="#ffecb3" stroke="#ffa000" stroke-width="2" rx="10" ry="10" />
  <text x="620" y="400" font-family="Arial" font-size="18" font-weight="bold" text-anchor="middle">Mock Database (RPC Layer)</text>
  
  <rect x="250" y="420" width="740" height="65" fill="#ffffff" stroke="#ffa000" stroke-width="1" rx="5" ry="5" />
  <text x="265" y="440" font-family="Arial" font-size="12">• Simulates network latency and failures</text>
  <text x="265" y="460" font-family="Arial" font-size="12">• In-memory storage of conversations, surveys, customers</text>
  <text x="265" y="480" font-family="Arial" font-size="12">• Implements retry logic with exponential backoff</text>
  
  <text x="620" y="440" font-family="Arial" font-size="12">• get_conversation_state(), save_conversation_state()</text>
  <text x="620" y="460" font-family="Arial" font-size="12">• get_customer_info(), get_survey_by_id()</text>
  <text x="620" y="480" font-family="Arial" font-size="12">• add_message_to_conversation(), save_survey_response()</text>
  
  <!-- Frontend Client -->
  <rect x="230" y="530" width="780" height="100" fill="#e0f7fa" stroke="#0097a7" stroke-width="2" rx="10" ry="10" />
  <text x="620" y="550" font-family="Arial" font-size="18" font-weight="bold" text-anchor="middle">WebSocket Test Client</text>
  
  <rect x="250" y="570" width="370" height="45" fill="#ffffff" stroke="#0097a7" stroke-width="1" rx="5" ry="5" />
  <text x="265" y="590" font-family="Arial" font-size="12">• HTML/CSS Interface</text>
  <text x="265" y="610" font-family="Arial" font-size="12">• Message Display and Input</text>
  
  <rect x="640" y="570" width="370" height="45" fill="#ffffff" stroke="#0097a7" stroke-width="1" rx="5" ry="5" />
  <text x="655" y="590" font-family="Arial" font-size="12">• JavaScript WebSocket Management</text>
  <text x="655" y="610" font-family="Arial" font-size="12">• Automatic Reconnection Logic</text>
  
  <!-- Project Structure - FURTHER IMPROVED WITH MORE WIDTH -->
  <rect x="20" y="70" width="190" height="560" fill="#ffffff" stroke="#333333" stroke-width="1" rx="5" ry="5" />
  <text x="115" y="90" font-family="Arial" font-size="14" font-weight="bold" text-anchor="middle">Project Structure</text>
  
  <text x="35" y="120" font-family="Arial" font-size="12" font-weight="bold">app/</text>
  <text x="50" y="140" font-family="Arial" font-size="11">├── db.py</text>
  <text x="50" y="160" font-family="Arial" font-size="11">└── main.py</text>
  
  <text x="35" y="190" font-family="Arial" font-size="12" font-weight="bold">frontend/</text>
  <text x="50" y="210" font-family="Arial" font-size="11">├── test_websocket.html</text>
  <text x="50" y="230" font-family="Arial" font-size="11">├── style.css</text>
  <text x="50" y="250" font-family="Arial" font-size="11">└── websocket.js</text>
  
  <text x="35" y="280" font-family="Arial" font-size="12" font-weight="bold">tests/</text>
  <text x="50" y="300" font-family="Arial" font-size="11">├── __init__.py</text>
  <text x="50" y="320" font-family="Arial" font-size="11">├── conftest.py</text>
  <text x="50" y="340" font-family="Arial" font-size="11">├── test_db.py</text>
  <text x="50" y="360" font-family="Arial" font-size="11">├── test_helper.py</text>
  <text x="50" y="380" font-family="Arial" font-size="11">├── test_routes.py</text>
  <text x="50" y="400" font-family="Arial" font-size="11">├── test_websocket.py</text>
  <text x="50" y="420" font-family="Arial" font-size="11">└── test_websocket_debug.py</text>
  
  <text x="35" y="450" font-family="Arial" font-size="12" font-weight="bold">docs/</text>
  <text x="50" y="470" font-family="Arial" font-size="11">├── api.md</text>
  <text x="50" y="490" font-family="Arial" font-size="11">├── architecture.md</text>
  <text x="50" y="510" font-family="Arial" font-size="11">├── deployment.md</text>
  <text x="50" y="530" font-family="Arial" font-size="11">├── development.md</text>
  <text x="50" y="550" font-family="Arial" font-size="11">└── websocket.md</text>
  
  <text x="35" y="580" font-family="Arial" font-size="12">pyproject.toml</text>
  <text x="35" y="600" font-family="Arial" font-size="12">poetry.lock</text>
  <text x="35" y="620" font-family="Arial" font-size="12">README.md</text>
  
  <!-- Connecting Arrows -->
  <!-- REST API to DB -->
  <path d="M 430 330 L 430 380" stroke="#1976d2" stroke-width="2" fill="none" marker-end="url(#arrowhead)" />
  <!-- DB to REST API -->
  <path d="M 410 380 L 410 330" stroke="#1976d2" stroke-width="2" fill="none" marker-end="url(#arrowhead)" />
  
  <!-- WebSocket to DB -->
  <path d="M 810 330 L 810 380" stroke="#388e3c" stroke-width="2" fill="none" marker-end="url(#arrowhead)" />
  <!-- DB to WebSocket -->
  <path d="M 790 380 L 790 330" stroke="#388e3c" stroke-width="2" fill="none" marker-end="url(#arrowhead)" />
  
  <!-- DB to Client -->
  <path d="M 620 500 L 620 530" stroke="#0097a7" stroke-width="2" fill="none" marker-end="url(#arrowhead)" stroke-dasharray="5,5" />
  
  <!-- WebSocket to Client -->
  <path d="M 870 350 C 930 350 930 550 810 550" stroke="#388e3c" stroke-width="2" fill="none" marker-end="url(#arrowhead)" />
  <!-- Client to WebSocket -->
  <path d="M 790 550 C 910 550 910 350 780 350" stroke="#388e3c" stroke-width="2" fill="none" marker-end="url(#arrowhead)" />
  
  <!-- Arrowhead marker -->
  <defs>
    <marker id="arrowhead" markerWidth="10" markerHeight="7" refX="9" refY="3.5" orient="auto">
      <polygon points="0 0, 10 3.5, 0 7" fill="#333" />
    </marker>
  </defs>
  
  <!-- Legend -->
  <rect x="830" y="15" width="180" height="45" fill="#ffffff" stroke="#333333" stroke-width="1" rx="5" ry="5" />
  <rect x="840" y="25" width="15" height="10" fill="#e1f5fe" stroke="#0288d1" stroke-width="1" />
  <text x="865" y="33" font-family="Arial" font-size="10">FastAPI Application</text>
  <rect x="840" y="40" width="15" height="10" fill="#ffecb3" stroke="#ffa000" stroke-width="1" />
  <text x="865" y="48" font-family="Arial" font-size="10">Mock Database</text>
</svg>